<svg width="17" height="17" viewBox="0 0 100 100" fill="none" xmlns="http://www.w3.org/2000/svg">
<circle cx="50" cy="50" r="50" fill="#B0B0B0"/>
<circle cx="50" cy="50" r="50" fill="#B0B0B0"/>
<circle cx="50" cy="50" r="40" fill="#878787"/>
<path d="M25.6016 33.5703C25.6016 33.1641 25.7266 32.8125 25.9766 32.5156C26.2422 32.2188 26.5547 32.0703 26.9141 32.0703H30.1953C30.5547 32.0703 30.8594 32.2188 31.1094 32.5156C31.3594 32.8125 31.4844 33.1641 31.4844 33.5703V62.7734H44.1875C44.5938 62.7734 44.8984 62.9062 45.1016 63.1719C45.3203 63.4219 45.4297 63.7344 45.4297 64.1094V66.6875C45.4297 67.0469 45.3203 67.3594 45.1016 67.625C44.8984 67.875 44.5938 68 44.1875 68H26.8906C26.5312 68 26.2266 67.8516 25.9766 67.5547C25.7266 67.2578 25.6016 66.9062 25.6016 66.5V33.5703ZM59.2812 66.5469C59.2812 67.5156 58.75 68 57.6875 68H54.9219C54.375 68 53.9844 67.8516 53.75 67.5547C53.5156 67.2578 53.3984 66.9219 53.3984 66.5469V34.1328C53.3984 33.5859 53.5391 33.1094 53.8203 32.7031C54.1172 32.2812 54.5938 32.0703 55.25 32.0703H64.5312C68.9062 32.0703 72.2969 33.1172 74.7031 35.2109C77.2188 37.3828 78.4766 40.4844 78.4766 44.5156C78.4766 48.5781 77.0625 51.8281 74.2344 54.2656C71.5469 56.5938 68.1484 57.7578 64.0391 57.7578C62.7422 57.7578 61.1562 57.6406 59.2812 57.4062V66.5469ZM59.2812 52.4844L61.1562 52.6953C61.7188 52.7578 62.4844 52.7891 63.4531 52.7891C64.4219 52.7891 65.4688 52.6406 66.5938 52.3438C67.7188 52.0469 68.7031 51.5703 69.5469 50.9141C71.4062 49.4922 72.3359 47.3672 72.3359 44.5391C72.3359 40.9609 70.75 38.6562 67.5781 37.625C66.5938 37.3125 65.4922 37.1562 64.2734 37.1562H59.2812V52.4844Z" fill="white"/>
</svg>
